<?xml version="1.0" encoding="UTF-8" standalone="no"?>
<svg
   xmlns:dc="http://purl.org/dc/elements/1.1/"
   xmlns:cc="http://creativecommons.org/ns#"
   xmlns:rdf="http://www.w3.org/1999/02/22-rdf-syntax-ns#"
   xmlns:svg="http://www.w3.org/2000/svg"
   xmlns="http://www.w3.org/2000/svg"
   xmlns:sodipodi="http://sodipodi.sourceforge.net/DTD/sodipodi-0.dtd"
   xmlns:inkscape="http://www.inkscape.org/namespaces/inkscape"
   height="525"
   width="600"
   version="1.1"
   id="svg16"
   sodipodi:docname="ISO_7010_W017.svg"
   inkscape:version="1.0.2-2 (e86c870879, 2021-01-15)">
  <defs
     id="defs20" />
  <sodipodi:namedview
     pagecolor="#ffffff"
     bordercolor="#666666"
     borderopacity="1"
     objecttolerance="10"
     gridtolerance="10"
     guidetolerance="10"
     inkscape:pageopacity="0"
     inkscape:pageshadow="2"
     inkscape:window-width="1099"
     inkscape:window-height="712"
     id="namedview18"
     showgrid="false"
     inkscape:zoom="0.88005772"
     inkscape:cx="300"
     inkscape:cy="262.5"
     inkscape:window-x="0"
     inkscape:window-y="0"
     inkscape:window-maximized="0"
     inkscape:current-layer="svg16" />
  <metadata
     id="metadata2">
    <rdf:RDF>
      <cc:Work
         rdf:about="">
        <dc:format>image/svg+xml</dc:format>
        <dc:type
           rdf:resource="http://purl.org/dc/dcmitype/StillImage" />
        <dc:title />
      </cc:Work>
    </rdf:RDF>
  </metadata>
  <path
     d="M597.6,499.6,313.8,8c-2.9-5-8.2-8-13.9-8s-11,3.1-13.9,8l-283.8,491.6c-2.9,5-2.9,11.1,0,16,2.9,5,8.2,8,13.9,8h567.6c5.7,0,11-3.1,13.9-8,2.9-5,2.9-11.1,0-16z"
     id="path4" />
  <polygon
     points="43.875,491.5,299.88,48.2,555.88,491.5"
     transform="matrix(1,0,0,0.99591458,0.125,2.0332437)"
     fill="#f6bd16"
     id="polygon6"
     style="fill:#f9a800;fill-opacity:1" />
  <rect
     height="25"
     width="250"
     y="437"
     x="175"
     fill="#000000"
     id="rect8" />
  <path
     stroke-linejoin="miter"
     d="M242.68,415c56.86-81.3-60.68-104.16-2.68-185"
     stroke="#000000"
     stroke-linecap="butt"
     stroke-miterlimit="4"
     stroke-dasharray="none"
     stroke-width="16"
     fill="none"
     id="path10" />
  <path
     stroke-linejoin="miter"
     d="m303.78,414.51c56.86-81.3-60.561-103.43-2.561-184.27"
     stroke="#000000"
     stroke-linecap="butt"
     stroke-miterlimit="4"
     stroke-dasharray="none"
     stroke-width="16"
     fill="none"
     id="path12" />
  <path
     stroke-linejoin="miter"
     d="M365,415c56.86-81.3-59.23-104.65-1.22-185.49"
     stroke="#000000"
     stroke-linecap="butt"
     stroke-miterlimit="4"
     stroke-dasharray="none"
     stroke-width="16"
     fill="none"
     id="path14" />
</svg>
